HIERARCHY
ROOT Root
{
	OFFSET 0.00 0.00 0.00
	CHANNELS 6 Xposition Yposition Zposition Xrotation Yrotation Zrotation
	JOINT L_Femur
	{
		OFFSET 2.78527 0.00000 0.00000
		CHANNELS 3 Xrotation Yrotation Zrotation
		JOINT L_Tibia
		{
			OFFSET 0.00000 -16.41095 0.00000
			CHANNELS 3 Xrotation Yrotation Zrotation
			JOINT L_Foot
			{
				OFFSET 0.00000 -14.21163 0.00000
				CHANNELS 3 Xrotation Yrotation Zrotation
				JOINT L_Toe
				{
					OFFSET 0.00000 -1.60827 6.00215
					CHANNELS 3 Xrotation Yrotation Zrotation
					End Site
					{
						OFFSET 0.00000 0.00000 2.95275
					}
				}
			}
		}
	}
	JOINT R_Femur
	{
		OFFSET -2.78527 0.00000 0.00000
		CHANNELS 3 Xrotation Yrotation Zrotation
		JOINT R_Tibia
		{
			OFFSET 0.00000 -16.41095 0.00000
			CHANNELS 3 Xrotation Yrotation Zrotation
			JOINT R_Foot
			{
				OFFSET 0.00000 -14.21163 0.00000
				CHANNELS 3 Xrotation Yrotation Zrotation
				JOINT R_Toe
				{
					OFFSET 0.00000 -1.60827 6.00215
					CHANNELS 3 Xrotation Yrotation Zrotation
					End Site
					{
						OFFSET 0.00000 0.00000 2.95275
					}
				}
			}
		}
	}
	JOINT LowerBack
	{
		OFFSET 0.00000 0.03937 0.00000
		CHANNELS 3 Xrotation Yrotation Zrotation
		JOINT Thorax
		{
			OFFSET 0.00000 7.01329 0.00000
			CHANNELS 3 Xrotation Yrotation Zrotation
			JOINT Neck
			{
				OFFSET 0.00000 7.25825 0.00000
				CHANNELS 3 Xrotation Yrotation Zrotation
				JOINT Head
				{
					OFFSET 0.00000 5.63334 0.00000
					CHANNELS 3 Xrotation Yrotation Zrotation
					End Site
					{
						OFFSET 0.00000 4.52755 0.00000
					}
				}
			}
			JOINT L_Collar
			{
				OFFSET 0.00000 7.25825 0.00000
				CHANNELS 3 Xrotation Yrotation Zrotation
				JOINT L_Humerus
				{
					OFFSET 6.91821 -0.00003 0.00000
					CHANNELS 3 Xrotation Yrotation Zrotation
					JOINT L_Elbow
					{
						OFFSET 10.34006 -0.00004 0.00000
						CHANNELS 3 Xrotation Yrotation Zrotation
						JOINT L_Wrist
						{
							OFFSET 7.25554 -0.00003 0.00000
							CHANNELS 3 Xrotation Yrotation Zrotation
							JOINT L_Thumb
							{
								OFFSET 0.00000 0.00000 0.00000
								CHANNELS 3 Xrotation Yrotation Zrotation
								End Site
								{
									OFFSET 0.00000 0.00000 3.93700
								}
							}
							JOINT L_Wrist_End
							{
								OFFSET 3.93700 -0.00001 0.00000
								CHANNELS 3 Xrotation Yrotation Zrotation
							}
						}
					}
				}
			}
			JOINT R_Collar
			{
				OFFSET 0.00000 7.25825 0.00000
				CHANNELS 3 Xrotation Yrotation Zrotation
				JOINT R_Humerus
				{
					OFFSET -6.91821 -0.00003 0.00000
					CHANNELS 3 Xrotation Yrotation Zrotation
					JOINT R_Elbow
					{
						OFFSET -10.34006 -0.00004 0.00000
						CHANNELS 3 Xrotation Yrotation Zrotation
						JOINT R_Wrist
						{
							OFFSET -7.25554 -0.00003 0.00000
							CHANNELS 3 Xrotation Yrotation Zrotation
							JOINT R_Thumb
							{
								OFFSET 0.00000 0.00000 0.00000
								CHANNELS 3 Xrotation Yrotation Zrotation
								End Site
								{
									OFFSET 0.00000 0.00000 3.93700
								}
							}
							JOINT R_Wrist_End
							{
								OFFSET -5.39369 -0.00002 0.00000
								CHANNELS 3 Xrotation Yrotation Zrotation
							}
						}
					}
				}
			}
		}
	}
}
MOTION
Frames: 6
Frame Time: 0.033332
 -6.8682 32.9374 0.1532 4.4895 -8.3787 0.0639 -2.2494 27.5886 7.0677 2.2595 -0.0000 -0.0000 -5.3988 -12.4239 0.2715 -7.9082 0.0000 0.0000 -3.3785 4.2876 -5.5642 4.4826 -0.0000 0.0000 -8.3123 7.6971 1.5637 -9.1691 0.0000 -0.0000 -3.4629 -2.3264 -10.5375 -3.0223 -2.4266 12.3480 -2.4713 -26.4087 3.4842 -12.4667 36.3372 14.1912 -6.7669 28.6927 21.0280 -22.9287 -12.2909 -23.5956 -0.0000 -6.9242 -0.0000 -12.8514 2.7839 -3.3266 -0.0000 0.0000 -0.0000 -0.0000 0.0000 -0.0000 -1.4649 -10.1343 -22.2287 -53.3182 -7.5545 30.2080 -0.0000 7.8374 0.0000 7.3845 0.2947 -14.5578 -0.0000 0.0000 -0.0000 -0.0000 0.0000 -0.0000
 -6.8859 32.9363 0.1408 4.4772 -8.4309 0.0746 -2.2610 27.5905 7.0931 2.2643 0.0000 0.0000 -5.3681 -12.3703 0.2683 -7.8990 0.0000 -0.0000 -3.3963 4.2266 -5.5478 4.4607 -0.0000 0.0000 -8.2997 7.8047 1.7191 -9.2675 0.0000 0.0000 -3.4119 -2.3207 -10.5754 -2.9597 -2.4051 12.3086 -2.4194 -26.4325 3.5291 -12.5004 36.4585 14.2720 -6.7923 28.6810 21.0649 -22.9991 -12.3506 -23.5574 -0.0000 -6.9713 -0.0000 -12.8831 2.7257 -3.3282 -0.0000 0.0000 -0.0000 -0.0000 0.0000 -0.0000 -1.4802 -10.1283 -22.1724 -53.2654 -7.5931 30.3269 -0.0000 7.9344 0.0000 7.2999 0.2849 -14.5353 -0.0000 -0.0000 0.0000 -0.0000 -0.0000 0.0000
 -6.9030 32.9334 0.1295 4.4763 -8.5696 0.0762 -2.2833 27.6899 7.1337 2.2775 0.0000 0.0000 -5.3811 -12.3279 0.2124 -7.8921 0.0000 -0.0000 -3.4270 4.2507 -5.5158 4.4373 -0.0000 -0.0000 -8.2875 7.9147 1.8102 -9.2843 0.0000 0.0000 -3.3598 -2.3056 -10.5852 -2.9166 -2.3776 12.2912 -2.4167 -26.4734 3.5020 -12.5653 36.6245 14.4732 -6.8642 28.7200 21.1226 -23.0682 -12.3760 -23.5608 -0.0000 -6.9823 -0.0000 -12.9682 2.6980 -3.3409 -0.0000 0.0000 -0.0000 -0.0000 0.0000 -0.0000 -1.4060 -10.1313 -22.1432 -53.3063 -7.5526 30.5067 -0.0000 7.9618 0.0000 7.3845 0.2532 -14.5551 -0.0000 0.0000 -0.0000 -0.0000 0.0000 -0.0000
 -6.9155 32.9323 0.1192 4.4931 -8.6918 0.0770 -2.3296 27.7418 7.1716 2.3136 -0.0000 0.0000 -5.3888 -12.2569 0.1955 -7.8784 0.0000 0.0000 -3.4583 4.2576 -5.4891 4.3870 -0.0000 0.0000 -8.2608 8.0330 1.8080 -9.2867 0.0000 0.0000 -3.3208 -2.2960 -10.5797 -2.8688 -2.3591 12.2937 -2.4193 -26.4792 3.5093 -12.6491 36.8023 14.5899 -6.8516 28.7520 21.1302 -22.9960 -12.4180 -23.5286 -0.0000 -7.0016 -0.0000 -12.6944 2.6894 -3.4244 -0.0000 0.0000 -0.0000 -0.0000 0.0000 -0.0000 -1.3725 -10.1286 -22.1336 -53.2718 -7.4781 30.6832 -0.0000 8.0184 0.0000 7.3115 0.2600 -14.5241 -0.0000 -0.0000 0.0000 -0.0000 -0.0000 0.0000
 -6.9269 32.9314 0.1090 4.5232 -8.8512 0.0727 -2.4034 27.8489 7.2268 2.3718 0.0000 0.0000 -5.4307 -12.2029 0.1938 -7.8942 0.0000 -0.0000 -3.5365 4.3668 -5.4454 4.4108 -0.0000 0.0000 -8.2574 8.0678 1.8637 -9.2844 0.0000 -0.0000 -3.2672 -2.2633 -10.5638 -2.8254 -2.3161 12.3073 -2.4501 -26.5306 3.4584 -12.8862 37.0484 14.8378 -6.9232 28.8157 21.1608 -23.0880 -12.3961 -23.5602 -0.0000 -7.0242 -0.0000 -12.7910 2.6991 -3.4385 -0.0000 0.0000 -0.0000 -0.0000 0.0000 -0.0000 -1.4025 -10.1264 -22.1382 -53.2008 -7.4015 30.8377 -0.0000 8.0498 0.0000 7.3315 0.2711 -14.5306 -0.0000 -0.0000 0.0000 -0.0000 -0.0000 0.0000
 -6.9369 32.9297 0.1035 4.5601 -8.9616 0.0745 -2.4745 27.9297 7.2705 2.4226 -0.0000 -0.0000 -5.4543 -12.1847 0.1392 -7.8436 0.0000 -0.0000 -3.6020 4.4519 -5.4152 4.4255 -0.0000 0.0000 -8.2622 8.0923 1.8430 -9.2653 0.0000 -0.0000 -3.2362 -2.2438 -10.5498 -2.7838 -2.2906 12.3283 -2.4081 -26.5326 3.4657 -13.1501 37.2865 15.0042 -6.9063 28.8518 21.1673 -23.2468 -12.3263 -23.6034 -0.0000 -6.9724 -0.0000 -12.7830 2.6603 -3.4724 -0.0000 0.0000 -0.0000 -0.0000 0.0000 -0.0000 -1.3071 -10.1241 -22.1244 -53.1518 -7.3313 30.9124 -0.0000 8.1152 0.0000 7.3623 0.2637 -14.5653 -0.0000 -0.0000 0.0000 -0.0000 -0.0000 0.0000
